<!--?xml version="1.0" standalone="no"?-->

<svg id="visual" viewBox="0 0 900 600" width="900" height="600" xmlns="http://www.w3.org/2000/svg" xmlns:xlink="http://www.w3.org/1999/xlink" version="1.1"><rect x="0" y="0" width="900" height="600" fill="#f9eff0"></rect><path d="M0 406L21.5 400.8C43 395.7 86 385.3 128.8 372.3C171.7 359.3 214.3 343.7 257.2 347C300 350.3 343 372.7 385.8 382.5C428.7 392.3 471.3 389.7 514.2 377C557 364.3 600 341.7 642.8 334.5C685.7 327.3 728.3 335.7 771.2 349.5C814 363.3 857 382.7 878.5 392.3L900 402L900 601L878.5 601C857 601 814 601 771.2 601C728.3 601 685.7 601 642.8 601C600 601 557 601 514.2 601C471.3 601 428.7 601 385.8 601C343 601 300 601 257.2 601C214.3 601 171.7 601 128.8 601C86 601 43 601 21.5 601L0 601Z" fill="#fa7268"></path><path d="M0 419L21.5 421.7C43 424.3 86 429.7 128.8 421.5C171.7 413.3 214.3 391.7 257.2 376.3C300 361 343 352 385.8 353.8C428.7 355.7 471.3 368.3 514.2 384.7C557 401 600 421 642.8 426.5C685.7 432 728.3 423 771.2 423.5C814 424 857 434 878.5 439L900 444L900 601L878.5 601C857 601 814 601 771.2 601C728.3 601 685.7 601 642.8 601C600 601 557 601 514.2 601C471.3 601 428.7 601 385.8 601C343 601 300 601 257.2 601C214.3 601 171.7 601 128.8 601C86 601 43 601 21.5 601L0 601Z" fill="#fd6457"></path><path d="M0 437L21.5 436.3C43 435.7 86 434.3 128.8 432.2C171.7 430 214.3 427 257.2 420.5C300 414 343 404 385.8 405.8C428.7 407.7 471.3 421.3 514.2 430.5C557 439.7 600 444.3 642.8 446.3C685.7 448.3 728.3 447.7 771.2 443.7C814 439.7 857 432.3 878.5 428.7L900 425L900 601L878.5 601C857 601 814 601 771.2 601C728.3 601 685.7 601 642.8 601C600 601 557 601 514.2 601C471.3 601 428.7 601 385.8 601C343 601 300 601 257.2 601C214.3 601 171.7 601 128.8 601C86 601 43 601 21.5 601L0 601Z" fill="#ff5446"></path><path d="M0 456L21.5 463C43 470 86 484 128.8 487.3C171.7 490.7 214.3 483.3 257.2 475.5C300 467.7 343 459.3 385.8 462.3C428.7 465.3 471.3 479.7 514.2 484.3C557 489 600 484 642.8 485.7C685.7 487.3 728.3 495.7 771.2 499.3C814 503 857 502 878.5 501.5L900 501L900 601L878.5 601C857 601 814 601 771.2 601C728.3 601 685.7 601 642.8 601C600 601 557 601 514.2 601C471.3 601 428.7 601 385.8 601C343 601 300 601 257.2 601C214.3 601 171.7 601 128.8 601C86 601 43 601 21.5 601L0 601Z" fill="#ff4334"></path><path d="M0 491L21.5 495C43 499 86 507 128.8 511.3C171.7 515.7 214.3 516.3 257.2 510.7C300 505 343 493 385.8 494.3C428.7 495.7 471.3 510.3 514.2 515C557 519.7 600 514.3 642.8 511.5C685.7 508.7 728.3 508.3 771.2 508.2C814 508 857 508 878.5 508L900 508L900 601L878.5 601C857 601 814 601 771.2 601C728.3 601 685.7 601 642.8 601C600 601 557 601 514.2 601C471.3 601 428.7 601 385.8 601C343 601 300 601 257.2 601C214.3 601 171.7 601 128.8 601C86 601 43 601 21.5 601L0 601Z" fill="#ff2d1f"></path><path d="M0 542L21.5 539.8C43 537.7 86 533.3 128.8 538.3C171.7 543.3 214.3 557.7 257.2 564.5C300 571.3 343 570.7 385.8 570.3C428.7 570 471.3 570 514.2 565C557 560 600 550 642.8 542.3C685.7 534.7 728.3 529.3 771.2 534.7C814 540 857 556 878.5 564L900 572L900 601L878.5 601C857 601 814 601 771.2 601C728.3 601 685.7 601 642.8 601C600 601 557 601 514.2 601C471.3 601 428.7 601 385.8 601C343 601 300 601 257.2 601C214.3 601 171.7 601 128.8 601C86 601 43 601 21.5 601L0 601Z" fill="#ff0000"></path></svg>
