<!--?xml version="1.0" standalone="no"?-->
              <svg id="sw-js-blob-svg" viewBox="0 0 100 100" xmlns="http://www.w3.org/2000/svg" version="1.1">
                    <defs> 
                        <linearGradient id="sw-gradient" x1="0" x2="1" y1="1" y2="0">
                            <stop id="stop1" stop-color="rgba(248, 117, 55, 1)" offset="0%"></stop>
                            <stop id="stop2" stop-color="rgba(251, 168, 31, 1)" offset="100%"></stop>
                        </linearGradient>
                    </defs>
                <path fill="url(#sw-gradient)" d="M12.2,-21.9C14.5,-15.1,14.1,-9.8,17.3,-4.6C20.5,0.7,27.3,5.9,26.3,8.3C25.2,10.8,16.3,10.5,10.6,14.2C5,18,2.5,25.7,-1.8,28.2C-6.1,30.6,-12.2,27.9,-18.8,24.5C-25.4,21,-32.6,17,-36.6,10.5C-40.6,4,-41.5,-4.9,-36.7,-9.6C-31.9,-14.3,-21.5,-14.8,-14.4,-20C-7.4,-25.2,-3.7,-35.2,0.6,-36C5,-36.9,9.9,-28.7,12.2,-21.9Z" width="100%" height="100%" transform="translate(50 50)" stroke-width="0" style="transition: all 0.3s ease 0s;"></path>
              </svg>